<svg width="32" height="32" viewBox="0 0 32 32" fill="none" xmlns="http://www.w3.org/2000/svg">
  <!-- Outer ring - 4 arcs -->
  <path d="M 16 2 A 14 14 0 0 1 28 16" stroke="#5bbd24" stroke-width="3" fill="none" stroke-linecap="round"/>
  <path d="M 28 16 A 14 14 0 0 1 16 30" stroke="#5bbd24" stroke-width="3" fill="none" stroke-linecap="round"/>
  <path d="M 16 30 A 14 14 0 0 1 4 16" stroke="#5bbd24" stroke-width="3" fill="none" stroke-linecap="round"/>
  <path d="M 4 16 A 14 14 0 0 1 16 2" stroke="#5bbd24" stroke-width="3" fill="none" stroke-linecap="round"/>
  <!-- Inner ring - 4 arcs offset -->
  <path d="M 18 8 A 8 8 0 0 1 24 16" stroke="#5bbd24" stroke-width="2.5" fill="none" stroke-linecap="round"/>
  <path d="M 24 16 A 8 8 0 0 1 14 24" stroke="#5bbd24" stroke-width="2.5" fill="none" stroke-linecap="round"/>
  <path d="M 14 24 A 8 8 0 0 1 8 16" stroke="#5bbd24" stroke-width="2.5" fill="none" stroke-linecap="round"/>
  <path d="M 8 16 A 8 8 0 0 1 18 8" stroke="#5bbd24" stroke-width="2.5" fill="none" stroke-linecap="round"/>
</svg>

